<?xml version="1.0" encoding="UTF-8"?>
<!DOCTYPE svg PUBLIC "-//W3C//DTD SVG 1.1//EN" "http://www.w3.org/Graphics/SVG/1.1/DTD/svg11.dtd">
<!-- Creator: CorelDRAW X7 -->
<svg xmlns="http://www.w3.org/2000/svg" xml:space="preserve" width="91.4398mm" height="65.7012mm" version="1.1" style="shape-rendering:geometricPrecision; text-rendering:geometricPrecision; image-rendering:optimizeQuality; fill-rule:evenodd; clip-rule:evenodd"
viewBox="0 0 9144 6570"
 xmlns:xlink="http://www.w3.org/1999/xlink">
 <defs>
  <style type="text/css">
   <![CDATA[
    .fil5 {fill:black}
    .fil3 {fill:#444444}
    .fil4 {fill:#4D4A4A}
    .fil2 {fill:#676767}
    .fil1 {fill:#898989}
    .fil0 {fill:#ABABAB;fill-rule:nonzero}
   ]]>
  </style>
 </defs>
 <g id="Layer_x0020_1">
  <metadata id="CorelCorpID_0Corel-Layer"/>
  <path class="fil0" d="M479 -1l8186 0c132,0 252,54 338,141 87,87 141,207 141,339l0 5612c0,132 -54,252 -141,339 -86,87 -206,141 -338,141l-8186 0c-132,0 -252,-54 -338,-141 -87,-87 -141,-207 -141,-339l0 -5612c0,-132 54,-252 141,-339 86,-87 206,-141 338,-141z"/>
  <path class="fil1" d="M479 8c-125,0 -244,50 -332,138 -89,89 -139,208 -139,333l0 5612c0,125 50,244 139,333 88,88 207,138 332,138l8186 0c125,0 244,-50 332,-138 89,-89 139,-208 139,-333l0 -5612c0,-125 -50,-244 -139,-333 -88,-88 -207,-138 -332,-138l-8186 0z"/>
  <path class="fil2" d="M479 16c-123,0 -239,49 -326,136 -87,87 -136,204 -136,327l0 5612c0,123 49,240 136,327 87,87 203,136 326,136l8186 0c123,0 239,-49 326,-136 87,-87 136,-204 136,-327l0 -5612c0,-123 -49,-240 -136,-327 -87,-87 -203,-136 -326,-136l-8186 0z"/>
  <path class="fil3" d="M479 25c-120,0 -235,48 -320,133 -86,85 -134,200 -134,321l0 5612c0,121 48,236 134,321 85,85 200,133 320,133l8186 0c120,0 235,-48 320,-133 86,-85 134,-200 134,-321l0 -5612c0,-121 -48,-236 -134,-321 -85,-85 -200,-133 -320,-133l-8186 0z"/>
  <path class="fil4" d="M479 33c-118,0 -231,47 -314,131 -84,84 -131,196 -131,315l0 5612c0,119 47,231 131,315 83,84 196,131 314,131l8186 0c118,0 231,-47 314,-131 84,-84 131,-196 131,-315l0 -5612c0,-119 -47,-231 -131,-315 -83,-84 -196,-131 -314,-131l-8186 0z"/>
  <path class="fil5" d="M479 42c-116,0 -226,46 -308,128 -83,82 -129,193 -129,309l0 5612c0,117 46,227 129,309 82,82 192,128 308,128l8186 0c116,0 226,-46 308,-128 83,-82 129,-192 129,-309l0 -5612c0,-116 -46,-227 -129,-309 -82,-82 -192,-128 -308,-128l-8186 0zm8186 264c46,0 89,18 122,51 32,32 51,76 51,122l0 5612c0,46 -19,90 -51,122 -33,33 -76,51 -122,51l-8186 0c-46,0 -89,-18 -122,-51 -32,-32 -51,-76 -51,-122l0 -5612c0,-46 19,-90 51,-122 33,-33 76,-51 122,-51l8186 0z"/>
 </g>
</svg>
